<svg width="50" height="50" viewBox="0 0 50 50" fill="none" xmlns="http://www.w3.org/2000/svg">
<path d="M6.25 17.9688C6.4572 17.9688 6.65591 17.8864 6.80243 17.7399C6.94894 17.5934 7.03125 17.3947 7.03125 17.1875V14.0625C7.03125 13.8553 6.94894 13.6566 6.80243 13.5101C6.65591 13.3636 6.4572 13.2812 6.25 13.2812C6.0428 13.2812 5.84409 13.3636 5.69757 13.5101C5.55106 13.6566 5.46875 13.8553 5.46875 14.0625V17.1875C5.46875 17.3947 5.55106 17.5934 5.69757 17.7399C5.84409 17.8864 6.0428 17.9688 6.25 17.9688ZM5.46875 23.4375C5.46875 23.6447 5.55106 23.8434 5.69757 23.9899C5.84409 24.1364 6.0428 24.2188 6.25 24.2188C6.4572 24.2188 6.65591 24.1364 6.80243 23.9899C6.94894 23.8434 7.03125 23.6447 7.03125 23.4375V20.3125C7.03125 20.1053 6.94894 19.9066 6.80243 19.7601C6.65591 19.6136 6.4572 19.5312 6.25 19.5312C6.0428 19.5312 5.84409 19.6136 5.69757 19.7601C5.55106 19.9066 5.46875 20.1053 5.46875 20.3125V23.4375ZM5.46875 29.6875C5.46875 29.8947 5.55106 30.0934 5.69757 30.2399C5.84409 30.3864 6.0428 30.4688 6.25 30.4688C6.4572 30.4688 6.65591 30.3864 6.80243 30.2399C6.94894 30.0934 7.03125 29.8947 7.03125 29.6875V26.5625C7.03125 26.3553 6.94894 26.1566 6.80243 26.0101C6.65591 25.8636 6.4572 25.7812 6.25 25.7812C6.0428 25.7812 5.84409 25.8636 5.69757 26.0101C5.55106 26.1566 5.46875 26.3553 5.46875 26.5625V29.6875ZM5.46875 35.9375C5.46875 36.1447 5.55106 36.3434 5.69757 36.4899C5.84409 36.6364 6.0428 36.7188 6.25 36.7188C6.4572 36.7188 6.65591 36.6364 6.80243 36.4899C6.94894 36.3434 7.03125 36.1447 7.03125 35.9375V32.8125C7.03125 32.6053 6.94894 32.4066 6.80243 32.2601C6.65591 32.1136 6.4572 32.0312 6.25 32.0312C6.0428 32.0312 5.84409 32.1136 5.69757 32.2601C5.55106 32.4066 5.46875 32.6053 5.46875 32.8125V35.9375Z" fill="#FFC901"/>
<path d="M44.5321 10.8721C45.3806 10.7288 46.1732 10.3549 46.8232 9.79107C47.4732 9.22729 47.9555 8.49548 48.2172 7.67582C48.4789 6.85616 48.51 5.98028 48.307 5.14414C48.104 4.30799 47.6748 3.54385 47.0664 2.93544C46.4579 2.32702 45.6938 1.89781 44.8577 1.69481C44.0215 1.49182 43.1456 1.52289 42.326 1.78461C41.5063 2.04633 40.7745 2.52861 40.2107 3.1786C39.6469 3.8286 39.2729 4.62122 39.1297 5.46965H39.0634C38.8562 5.46965 38.6575 5.55196 38.511 5.69847C38.3645 5.84498 38.2821 6.0437 38.2821 6.2509C38.2821 6.4581 38.3645 6.65681 38.511 6.80332C38.6575 6.94984 38.8562 7.03215 39.0634 7.03215H39.1297C39.2474 7.7288 39.522 8.38958 39.9325 8.96457L35.4778 13.4189C32.6087 10.817 28.8741 9.3758 25.0009 9.3758C21.1277 9.3758 17.3931 10.817 14.5239 13.4189L10.0693 8.96457C10.4798 8.38956 10.7543 7.72879 10.8721 7.03215H10.9384C11.1456 7.03215 11.3443 6.94984 11.4908 6.80332C11.6373 6.65681 11.7196 6.4581 11.7196 6.2509C11.7196 6.0437 11.6373 5.84498 11.4908 5.69847C11.3443 5.55196 11.1456 5.46965 10.9384 5.46965H10.8721C10.7288 4.62122 10.3549 3.8286 9.79107 3.1786C9.22729 2.52861 8.49548 2.04633 7.67582 1.78461C6.85616 1.52289 5.98028 1.49182 5.14414 1.69481C4.30799 1.89781 3.54385 2.32702 2.93544 2.93544C2.32702 3.54385 1.89781 4.30799 1.69481 5.14414C1.49182 5.98028 1.52289 6.85616 1.78461 7.67582C2.04633 8.49548 2.52861 9.22729 3.1786 9.79107C3.8286 10.3549 4.62122 10.7288 5.46965 10.8721V10.9384C5.46965 11.1456 5.55196 11.3443 5.69847 11.4908C5.84498 11.6373 6.0437 11.7196 6.2509 11.7196C6.4581 11.7196 6.65681 11.6373 6.80332 11.4908C6.94984 11.3443 7.03215 11.1456 7.03215 10.9384V10.8721C7.7288 10.7544 8.38958 10.4798 8.96457 10.0693L13.4189 14.5239C10.817 17.3931 9.3758 21.1277 9.3758 25.0009C9.3758 28.8741 10.817 32.6087 13.4189 35.4778L8.96457 39.9325C8.38958 39.522 7.7288 39.2474 7.03215 39.1297V39.0634C7.03215 38.8562 6.94984 38.6575 6.80332 38.511C6.65681 38.3645 6.4581 38.2821 6.2509 38.2821C6.0437 38.2821 5.84498 38.3645 5.69847 38.511C5.55196 38.6575 5.46965 38.8562 5.46965 39.0634V39.1297C4.62122 39.2729 3.8286 39.6469 3.1786 40.2107C2.52861 40.7745 2.04633 41.5063 1.78461 42.326C1.52289 43.1456 1.49182 44.0215 1.69481 44.8577C1.89781 45.6938 2.32702 46.4579 2.93544 47.0664C3.54385 47.6748 4.30799 48.104 5.14414 48.307C5.98028 48.51 6.85616 48.4789 7.67582 48.2172C8.49548 47.9555 9.22729 47.4732 9.79107 46.8232C10.3549 46.1732 10.7288 45.3806 10.8721 44.5321H10.9384C11.1456 44.5321 11.3443 44.4498 11.4908 44.3033C11.6373 44.1568 11.7196 43.9581 11.7196 43.7509C11.7196 43.5437 11.6373 43.345 11.4908 43.1985C11.3443 43.052 11.1456 42.9696 10.9384 42.9696H10.8721C10.7544 42.273 10.4799 41.6123 10.0695 41.0372L14.5239 36.5829C17.3931 39.1848 21.1277 40.626 25.0009 40.626C28.8741 40.626 32.6087 39.1848 35.4778 36.5829L39.9325 41.0372C39.522 41.6122 39.2474 42.273 39.1297 42.9696H39.0634C38.8562 42.9696 38.6575 43.052 38.511 43.1985C38.3645 43.345 38.2821 43.5437 38.2821 43.7509C38.2821 43.9581 38.3645 44.1568 38.511 44.3033C38.6575 44.4498 38.8562 44.5321 39.0634 44.5321H39.1297C39.2729 45.3806 39.6469 46.1732 40.2107 46.8232C40.7745 47.4732 41.5063 47.9555 42.326 48.2172C43.1456 48.4789 44.0215 48.51 44.8577 48.307C45.6938 48.104 46.4579 47.6748 47.0664 47.0664C47.6748 46.4579 48.104 45.6938 48.307 44.8577C48.51 44.0215 48.4789 43.1456 48.2172 42.326C47.9555 41.5063 47.4732 40.7745 46.8232 40.2107C46.1732 39.6469 45.3806 39.2729 44.5321 39.1297V39.0634C44.5321 38.8562 44.4498 38.6575 44.3033 38.511C44.1568 38.3645 43.9581 38.2821 43.7509 38.2821C43.5437 38.2821 43.345 38.3645 43.1985 38.511C43.052 38.6575 42.9696 38.8562 42.9696 39.0634V39.1297C42.273 39.2474 41.6122 39.5218 41.0372 39.9323L36.5829 35.4778C39.1848 32.6087 40.626 28.8741 40.626 25.0009C40.626 21.1277 39.1848 17.3931 36.5829 14.5239L41.0372 10.0693C41.6122 10.4798 42.273 10.7544 42.9696 10.8721V10.9384C42.9696 11.1456 43.052 11.3443 43.1985 11.4908C43.345 11.6373 43.5437 11.7196 43.7509 11.7196C43.9581 11.7196 44.1568 11.6373 44.3033 11.4908C44.4498 11.3443 44.5321 11.1456 44.5321 10.9384V10.8721ZM39.0413 24.2196H32.8011C32.6523 18.7923 30.9749 15.1555 29.5564 13.0315C29.1547 12.428 28.7108 11.8537 28.2282 11.3127C34.1874 12.7176 38.6948 17.9232 39.0413 24.2196ZM24.2196 11.1266V24.2196H18.7633C18.9079 19.2358 20.4166 15.9137 21.693 13.9761C22.6809 12.4772 23.6779 11.5619 24.2196 11.1266ZM24.2196 25.7821V38.8608C23.2419 38.022 22.3925 37.0445 21.6984 35.9593C19.47 32.5461 18.8526 28.6686 18.7633 25.7821H24.2196ZM25.7821 38.861V25.7821H31.2381C31.0908 30.6774 29.5811 34.0022 28.3034 35.9593C27.6093 37.0445 26.7598 38.0221 25.7821 38.861ZM25.7821 24.2196V11.1266C26.3238 11.5619 27.3209 12.4772 28.3085 13.9761C30.5363 17.3574 31.1513 21.284 31.2389 24.2196H25.7821ZM21.7732 11.3127C21.2906 11.8537 20.8467 12.428 20.445 13.0315C19.0265 15.1555 17.3493 18.7923 17.2003 24.2196H10.9601C11.307 17.9232 15.8144 12.7176 21.7732 11.3127ZM6.2509 9.3759C5.63283 9.3759 5.02864 9.19262 4.51474 8.84924C4.00084 8.50586 3.6003 8.0178 3.36377 7.44678C3.12725 6.87576 3.06537 6.24743 3.18594 5.64124C3.30652 5.03505 3.60415 4.47823 4.04119 4.04119C4.47823 3.60415 5.03505 3.30652 5.64124 3.18594C6.24743 3.06537 6.87576 3.12725 7.44678 3.36377C8.0178 3.6003 8.50586 4.00084 8.84924 4.51474C9.19262 5.02864 9.3759 5.63283 9.3759 6.2509C9.37497 7.07941 9.04543 7.87373 8.45958 8.45958C7.87373 9.04543 7.07941 9.37497 6.2509 9.3759ZM6.2509 46.8759C5.63283 46.8759 5.02864 46.6926 4.51474 46.3492C4.00084 46.0059 3.6003 45.5178 3.36377 44.9468C3.12725 44.3758 3.06537 43.7474 3.18594 43.1412C3.30652 42.535 3.60415 41.9782 4.04119 41.5412C4.47823 41.1041 5.03505 40.8065 5.64124 40.6859C6.24743 40.5654 6.87576 40.6272 7.44678 40.8638C8.0178 41.1003 8.50586 41.5008 8.84924 42.0147C9.19262 42.5286 9.3759 43.1328 9.3759 43.7509C9.37497 44.5794 9.04543 45.3737 8.45958 45.9596C7.87373 46.5454 7.07941 46.875 6.2509 46.8759ZM10.9605 25.7821H17.2007C17.3519 31.1135 19.0269 34.751 20.4429 36.8941C20.8612 37.5288 21.3242 38.133 21.8281 38.7021C15.8421 37.3169 11.308 32.0981 10.9605 25.7821ZM28.1737 38.7021C28.6777 38.1328 29.1406 37.5285 29.5589 36.8937C30.9749 34.7506 32.65 31.1131 32.8011 25.7818H39.0413C38.6938 32.0981 34.1597 37.3169 28.1737 38.7021ZM43.7509 40.6259C44.369 40.6259 44.9732 40.8092 45.4871 41.1526C46.001 41.4959 46.4015 41.984 46.638 42.555C46.8745 43.126 46.9364 43.7544 46.8159 44.3606C46.6953 44.9667 46.3976 45.5236 45.9606 45.9606C45.5236 46.3976 44.9667 46.6953 44.3606 46.8159C43.7544 46.9364 43.126 46.8745 42.555 46.638C41.984 46.4015 41.4959 46.001 41.1526 45.4871C40.8092 44.9732 40.6259 44.369 40.6259 43.7509C40.6268 42.9224 40.9564 42.1281 41.5422 41.5422C42.1281 40.9564 42.9224 40.6268 43.7509 40.6259ZM40.6259 6.2509C40.6259 5.63283 40.8092 5.02864 41.1526 4.51474C41.4959 4.00084 41.984 3.6003 42.555 3.36377C43.126 3.12725 43.7544 3.06537 44.3606 3.18594C44.9667 3.30652 45.5236 3.60415 45.9606 4.04119C46.3976 4.47823 46.6953 5.03505 46.8159 5.64124C46.9364 6.24743 46.8745 6.87576 46.638 7.44678C46.4015 8.0178 46.001 8.50586 45.4871 8.84924C44.9732 9.19262 44.369 9.3759 43.7509 9.3759C42.9224 9.37497 42.1281 9.04543 41.5422 8.45958C40.9564 7.87373 40.6268 7.07941 40.6259 6.2509Z" fill="#FFC901"/>
<path d="M44.5312 14.0625C44.5312 13.8553 44.4489 13.6566 44.3024 13.5101C44.1559 13.3636 43.9572 13.2812 43.75 13.2812C43.5428 13.2812 43.3441 13.3636 43.1976 13.5101C43.0511 13.6566 42.9688 13.8553 42.9688 14.0625V17.1875C42.9688 17.3947 43.0511 17.5934 43.1976 17.7399C43.3441 17.8864 43.5428 17.9688 43.75 17.9688C43.9572 17.9688 44.1559 17.8864 44.3024 17.7399C44.4489 17.5934 44.5312 17.3947 44.5312 17.1875V14.0625ZM44.5312 20.3125C44.5312 20.1053 44.4489 19.9066 44.3024 19.7601C44.1559 19.6136 43.9572 19.5312 43.75 19.5312C43.5428 19.5312 43.3441 19.6136 43.1976 19.7601C43.0511 19.9066 42.9688 20.1053 42.9688 20.3125V23.4375C42.9688 23.6447 43.0511 23.8434 43.1976 23.9899C43.3441 24.1364 43.5428 24.2188 43.75 24.2188C43.9572 24.2188 44.1559 24.1364 44.3024 23.9899C44.4489 23.8434 44.5312 23.6447 44.5312 23.4375V20.3125ZM44.5312 26.5625C44.5312 26.3553 44.4489 26.1566 44.3024 26.0101C44.1559 25.8636 43.9572 25.7812 43.75 25.7812C43.5428 25.7812 43.3441 25.8636 43.1976 26.0101C43.0511 26.1566 42.9688 26.3553 42.9688 26.5625V29.6875C42.9688 29.8947 43.0511 30.0934 43.1976 30.2399C43.3441 30.3864 43.5428 30.4688 43.75 30.4688C43.9572 30.4688 44.1559 30.3864 44.3024 30.2399C44.4489 30.0934 44.5312 29.8947 44.5312 29.6875V26.5625ZM43.75 32.0312C43.5428 32.0312 43.3441 32.1136 43.1976 32.2601C43.0511 32.4066 42.9688 32.6053 42.9688 32.8125V35.9375C42.9688 36.1447 43.0511 36.3434 43.1976 36.4899C43.3441 36.6364 43.5428 36.7188 43.75 36.7188C43.9572 36.7188 44.1559 36.6364 44.3024 36.4899C44.4489 36.3434 44.5312 36.1447 44.5312 35.9375V32.8125C44.5312 32.6053 44.4489 32.4066 44.3024 32.2601C44.1559 32.1136 43.9572 32.0312 43.75 32.0312ZM14.0625 5.46875C13.8553 5.46875 13.6566 5.55106 13.5101 5.69757C13.3636 5.84409 13.2812 6.0428 13.2812 6.25C13.2812 6.4572 13.3636 6.65591 13.5101 6.80243C13.6566 6.94894 13.8553 7.03125 14.0625 7.03125H17.1875C17.3947 7.03125 17.5934 6.94894 17.7399 6.80243C17.8864 6.65591 17.9688 6.4572 17.9688 6.25C17.9688 6.0428 17.8864 5.84409 17.7399 5.69757C17.5934 5.55106 17.3947 5.46875 17.1875 5.46875H14.0625ZM20.3125 5.46875C20.1053 5.46875 19.9066 5.55106 19.7601 5.69757C19.6136 5.84409 19.5312 6.0428 19.5312 6.25C19.5312 6.4572 19.6136 6.65591 19.7601 6.80243C19.9066 6.94894 20.1053 7.03125 20.3125 7.03125H23.4375C23.6447 7.03125 23.8434 6.94894 23.9899 6.80243C24.1364 6.65591 24.2188 6.4572 24.2188 6.25C24.2188 6.0428 24.1364 5.84409 23.9899 5.69757C23.8434 5.55106 23.6447 5.46875 23.4375 5.46875H20.3125ZM26.5625 5.46875C26.3553 5.46875 26.1566 5.55106 26.0101 5.69757C25.8636 5.84409 25.7812 6.0428 25.7812 6.25C25.7812 6.4572 25.8636 6.65591 26.0101 6.80243C26.1566 6.94894 26.3553 7.03125 26.5625 7.03125H29.6875C29.8947 7.03125 30.0934 6.94894 30.2399 6.80243C30.3864 6.65591 30.4688 6.4572 30.4688 6.25C30.4688 6.0428 30.3864 5.84409 30.2399 5.69757C30.0934 5.55106 29.8947 5.46875 29.6875 5.46875H26.5625ZM32.8125 5.46875C32.6053 5.46875 32.4066 5.55106 32.2601 5.69757C32.1136 5.84409 32.0312 6.0428 32.0312 6.25C32.0312 6.4572 32.1136 6.65591 32.2601 6.80243C32.4066 6.94894 32.6053 7.03125 32.8125 7.03125H35.9375C36.1447 7.03125 36.3434 6.94894 36.4899 6.80243C36.6364 6.65591 36.7188 6.4572 36.7188 6.25C36.7188 6.0428 36.6364 5.84409 36.4899 5.69757C36.3434 5.55106 36.1447 5.46875 35.9375 5.46875H32.8125ZM17.1875 44.5312C17.3947 44.5312 17.5934 44.4489 17.7399 44.3024C17.8864 44.1559 17.9688 43.9572 17.9688 43.75C17.9688 43.5428 17.8864 43.3441 17.7399 43.1976C17.5934 43.0511 17.3947 42.9688 17.1875 42.9688H14.0625C13.8553 42.9688 13.6566 43.0511 13.5101 43.1976C13.3636 43.3441 13.2812 43.5428 13.2812 43.75C13.2812 43.9572 13.3636 44.1559 13.5101 44.3024C13.6566 44.4489 13.8553 44.5312 14.0625 44.5312H17.1875ZM23.4375 44.5312C23.6447 44.5312 23.8434 44.4489 23.9899 44.3024C24.1364 44.1559 24.2188 43.9572 24.2188 43.75C24.2188 43.5428 24.1364 43.3441 23.9899 43.1976C23.8434 43.0511 23.6447 42.9688 23.4375 42.9688H20.3125C20.1053 42.9688 19.9066 43.0511 19.7601 43.1976C19.6136 43.3441 19.5312 43.5428 19.5312 43.75C19.5312 43.9572 19.6136 44.1559 19.7601 44.3024C19.9066 44.4489 20.1053 44.5312 20.3125 44.5312H23.4375ZM29.6875 44.5312C29.8947 44.5312 30.0934 44.4489 30.2399 44.3024C30.3864 44.1559 30.4688 43.9572 30.4688 43.75C30.4688 43.5428 30.3864 43.3441 30.2399 43.1976C30.0934 43.0511 29.8947 42.9688 29.6875 42.9688H26.5625C26.3553 42.9688 26.1566 43.0511 26.0101 43.1976C25.8636 43.3441 25.7812 43.5428 25.7812 43.75C25.7812 43.9572 25.8636 44.1559 26.0101 44.3024C26.1566 44.4489 26.3553 44.5312 26.5625 44.5312H29.6875ZM35.9375 44.5312C36.1447 44.5312 36.3434 44.4489 36.4899 44.3024C36.6364 44.1559 36.7188 43.9572 36.7188 43.75C36.7188 43.5428 36.6364 43.3441 36.4899 43.1976C36.3434 43.0511 36.1447 42.9688 35.9375 42.9688H32.8125C32.6053 42.9688 32.4066 43.0511 32.2601 43.1976C32.1136 43.3441 32.0312 43.5428 32.0312 43.75C32.0312 43.9572 32.1136 44.1559 32.2601 44.3024C32.4066 44.4489 32.6053 44.5312 32.8125 44.5312H35.9375Z" fill="#FFC901"/>
</svg>
